<?xml version="1.0" encoding="UTF-8" standalone="no"?>
<!-- Created with Inkscape (http://www.inkscape.org/) -->

<svg
   xmlns:dc="http://purl.org/dc/elements/1.1/"
   xmlns:cc="http://creativecommons.org/ns#"
   xmlns:rdf="http://www.w3.org/1999/02/22-rdf-syntax-ns#"
   xmlns:svg="http://www.w3.org/2000/svg"
   xmlns="http://www.w3.org/2000/svg"
   xmlns:sodipodi="http://sodipodi.sourceforge.net/DTD/sodipodi-0.dtd"
   xmlns:inkscape="http://www.inkscape.org/namespaces/inkscape"
   width="62mm"
   height="62mm"
   viewBox="0 0 219.68504 219.68504"
   id="svg4210"
   version="1.1"
   inkscape:version="0.91 r13725"
   sodipodi:docname="iso.svg">
  <defs
     id="defs4212" />
  <sodipodi:namedview
     id="base"
     pagecolor="#ffffff"
     bordercolor="#666666"
     borderopacity="1.0"
     inkscape:pageopacity="0.0"
     inkscape:pageshadow="2"
     inkscape:zoom="0.98994949"
     inkscape:cx="0.67563365"
     inkscape:cy="-53.697405"
     inkscape:document-units="px"
     inkscape:current-layer="layer1"
     showgrid="false"
     inkscape:window-width="1440"
     inkscape:window-height="840"
     inkscape:window-x="0"
     inkscape:window-y="27"
     inkscape:window-maximized="1"
     fit-margin-top="0"
     fit-margin-left="0"
     fit-margin-right="0"
     fit-margin-bottom="0" />
  <metadata
     id="metadata4215">
    <rdf:RDF>
      <cc:Work
         rdf:about="">
        <dc:format>image/svg+xml</dc:format>
        <dc:type
           rdf:resource="http://purl.org/dc/dcmitype/StillImage" />
        <dc:title></dc:title>
      </cc:Work>
    </rdf:RDF>
  </metadata>
  <g
     inkscape:label="Layer 1"
     inkscape:groupmode="layer"
     id="layer1"
     transform="translate(-1184.6488,-325.31763)">
    <path
       inkscape:connector-curvature="0"
       id="path4220"
       style="fill:#ffffff;fill-rule:evenodd"
       d="m 1294.4597,357.26374 c 8.8642,0 17.4745,1.082 25.7034,3.1181 7.7001,1.9052 15.0668,4.6472 21.9955,8.121 1.6801,-6.7119 3.274,-13.6579 4.784,-20.8358 0.022,-0.1142 0.1281,-0.1953 0.2463,-0.1837 0.125,0.0122 0.2169,0.1242 0.2047,0.2492 -1.5934,15.7212 -3.757,30.4702 -6.442,44.2942 -2.7604,14.2115 -6.0735,27.4501 -9.8861,39.7658 -3.3724,10.8941 -12.8815,38.2351 -24.918,57.9586 -7.3454,12.037 -15.6444,21.2479 -24.0959,22.2012 -13.9297,1.5718 -17.3143,-17.7094 -19.1954,-28.4278 l -0.1885,-1.0698 c -2.6804,-15.1279 -3.2952,-32.3215 -2.7391,-50.6843 0.5556,-18.3515 2.2813,-37.8694 4.2835,-57.6626 l 2e-4,-0.003 c 0.01,-0.1258 0.1165,-0.2213 0.2424,-0.2137 0.1256,0.008 0.2211,0.1168 0.2135,0.2424 -0.874,13.5323 -1.0917,34.6756 0.229,54.7452 0.9961,15.1379 2.8675,29.662 5.9919,39.8401 1.2985,4.2293 2.8655,7.2059 4.6377,9.1222 2.1776,2.355 4.6724,3.1042 7.3633,2.6146 2.7244,-0.4957 5.6619,-2.2538 8.6856,-4.8999 6.683,-5.8488 13.7588,-16.0129 19.9117,-26.4997 7.4965,-12.7758 14.1585,-27.6562 20.0466,-44.5742 2.9254,-8.4056 5.66,-17.3143 8.2112,-26.7183 -6.6269,-3.2318 -13.6582,-5.7781 -20.9963,-7.5424 -7.7842,-1.8709 -15.9185,-2.8636 -24.2892,-2.8636 -4.4371,0 -8.8033,0.2787 -13.0819,0.8184 -4.3639,0.5502 -8.6445,1.3728 -12.8211,2.4477 l 3e-4,9e-4 -0.2185,0.0584 -0.014,0.003 c -22.2446,5.7829 -41.5392,18.7718 -55.1812,36.2925 -13.3421,17.1363 -21.278,38.6099 -21.278,61.9194 0,6.7065 0.6585,13.2599 1.9134,19.6007 1.2889,6.5135 3.2065,12.8036 5.686,18.8042 0.048,0.1163 -0.01,0.2501 -0.1242,0.2977 -0.1119,0.0456 -0.2403,-0.004 -0.2922,-0.1117 l -3e-4,0 c -3.3792,-6.9636 -6.0058,-14.3552 -7.7734,-22.0697 -1.7181,-7.4985 -2.6258,-15.3006 -2.6258,-23.3102 0,-28.9516 11.844,-55.1633 30.9923,-74.137 19.1484,-18.9728 45.6013,-30.7083 74.8188,-30.7083 z m 52.8662,14.0069 c 16.1022,9.2208 29.5256,22.5249 38.8269,38.4834 8.9794,15.406 14.118,33.2864 14.118,52.355 0,8.0096 -0.9074,15.8117 -2.6254,23.3102 -1.768,7.7145 -4.3946,15.1061 -7.7738,22.0697 -0.054,0.1134 -0.1913,0.161 -0.3047,0.1066 -0.1134,-0.0547 -0.161,-0.1911 -0.1069,-0.3045 2.4769,-5.9969 4.3932,-12.2831 5.6812,-18.7923 1.2549,-6.3408 1.9131,-12.8942 1.9131,-19.6007 0,-18.5164 -5.0068,-35.8744 -13.7534,-50.8198 -9.0601,-15.4814 -22.134,-28.3765 -37.8116,-37.2897 -0.086,-0.0491 -0.129,-0.1475 -0.1117,-0.2404 0.2764,-1.4766 0.5516,-2.9903 0.8252,-4.54 0.2724,-1.5435 0.5343,-3.0699 0.7843,-4.5757 0.02,-0.1241 0.1378,-0.2089 0.2619,-0.1888 0.028,0.005 0.053,0.0142 0.077,0.0272 l 3e-4,-2e-4 z m -91.9012,35.5827 c -9.989,20.488 -14.0063,39.744 -13.3901,58.0422 0.616,18.2991 5.8666,35.6477 14.4111,52.3188 0.057,0.1119 0.013,0.2497 -0.099,0.3067 -0.094,0.0479 -0.2064,0.0241 -0.2736,-0.0508 -15.3034,-16.6991 -22.9322,-35.7429 -23.1094,-54.8795 -0.1789,-19.3476 7.2592,-38.7857 22.083,-55.9868 0.082,-0.0953 0.2265,-0.1058 0.3217,-0.0233 0.08,0.0692 0.1001,0.1817 0.056,0.2724 l 6e-4,3e-4 z m 0.6482,110.6169 c -0.013,-0.0144 -0.024,-0.0303 -0.033,-0.0484 z m 93.5768,-60.1205 c 4.9127,-21.9991 4.7064,-44.7435 -0.5958,-68.01 -0.028,-0.1023 0.019,-0.2148 0.117,-0.2644 0.1126,-0.0567 0.25,-0.0114 0.307,0.1009 12.2193,24.2036 15.3893,49.0164 10.3023,71.7973 -5.1276,22.9618 -18.6421,43.8565 -39.7316,59.9828 l 0,-3e-4 c -0.079,0.0598 -0.191,0.0638 -0.2744,0.002 -0.1012,-0.0749 -0.1224,-0.2183 -0.048,-0.3192 15.065,-20.2167 25.0322,-41.3864 29.9231,-63.2894 z"
       sodipodi:nodetypes="csccccssccccsccccsccsccsccsccccccscccccssccccsscccccssccccccccccccccccccccccccccscccccc" />
  </g>
</svg>
