<svg xmlns="http://www.w3.org/2000/svg" width="180" height="180"><path fill="#102a83" fill-rule="evenodd" d="M89.46 6.7c5.36 0 10.56.65 15.54 1.88 4.65 1.15 9.1 2.8 13.3 4.9 1-4.05 1.97-8.25 2.88-12.6.02-.06.08-.1.15-.1.08 0 .13.08.13.15-.97 9.5-2.27 18.42-3.9 26.78-1.67 8.6-3.67 16.6-5.97 24.04-2.05 6.6-7.8 23.1-15.07 35.04-4.44 7.27-9.46 12.84-14.57 13.42-8.42.95-10.47-10.7-11.6-17.2l-.12-.63c-1.62-9.15-2-19.54-1.65-30.64.32-11.1 1.37-22.9 2.58-34.85 0-.08.07-.14.14-.14.08 0 .14.07.13.15-.53 8.17-.66 20.95.14 33.08.6 9.15 1.72 17.93 3.6 24.08.8 2.56 1.75 4.36 2.82 5.52 1.3 1.42 2.82 1.87 4.45 1.58 1.64-.3 3.42-1.36 5.25-2.96 4.04-3.54 8.3-9.68 12.03-16.02 4.53-7.72 8.56-16.72 12.12-26.95 1.77-5.08 3.42-10.46 4.96-16.15-4-1.95-8.25-3.5-12.7-4.55-4.7-1.13-9.6-1.73-14.67-1.73-2.68 0-5.32.16-7.9.5-2.64.32-5.23.82-7.76 1.47l-.13.04C60.2 18.3 48.54 26.16 40.3 36.75 32.25 47.1 27.46 60.08 27.46 74.17c0 4.06.4 8.02 1.15 11.85.78 3.94 1.94 7.74 3.44 11.37.03.06 0 .14-.07.17-.07.02-.15 0-.18-.07-2.05-4.2-3.64-8.68-4.7-13.34-1.05-4.53-1.6-9.25-1.6-14.1 0-17.5 7.16-33.34 18.74-44.8C55.8 13.8 71.8 6.7 89.46 6.7zm31.96 8.46c9.73 5.57 17.84 13.62 23.46 23.26 5.43 9.3 8.54 20.12 8.54 31.65 0 4.84-.55 9.56-1.6 14.1-1.06 4.65-2.64 9.12-4.7 13.33-.02.07-.1.1-.17.06-.07-.03-.1-.1-.07-.18 1.5-3.63 2.66-7.43 3.44-11.36.76-3.83 1.15-7.8 1.15-11.85 0-11.2-3.02-21.68-8.3-30.72-5.5-9.35-13.4-17.15-22.86-22.54-.05-.02-.07-.08-.06-.13.17-.9.33-1.8.5-2.75.16-.93.32-1.85.47-2.76.02-.08.1-.13.17-.12.02 0 .03 0 .05.02zm-55.55 21.5c-6.04 12.4-8.47 24.03-8.1 35.1.37 11.05 3.55 21.54 8.7 31.62.05.06.02.15-.05.18-.05.03-.12.02-.16-.03C57 93.43 52.4 81.93 52.3 70.36c-.12-11.7 4.38-23.44 13.34-33.84.05-.06.13-.07.2-.02.04.05.05.1.03.17zm.4 66.87c-.02 0-.03-.02-.03-.03zM122.8 67.2c2.97-13.3 2.85-27.05-.36-41.12-.02-.06 0-.13.07-.16s.15 0 .2.06c7.37 14.63 9.3 29.63 6.2 43.4-3.1 13.88-11.25 26.5-24 36.26-.05.03-.12.04-.17 0-.06-.05-.07-.13-.03-.2 9.1-12.2 15.13-25 18.1-38.25zm-87.16 46.7v27.75h-7.7v-19.3l-5.35 19.3h-4.43l-5.5-18.97v18.97H10V113.9h8.1l4.7 16.76 4.68-16.76h8.18zm17.2 0l7.65 27.75h-8l-1.62-6.04H42.6l-1.74 6.05h-3.12l8.13-27.75h7zm-9.47 18.93h6.73l-3.24-12.26-3.5 12.26zm19.28 8.82V113.9h11.8c3.06 0 5.52.65 7.35 1.96 1.84 1.3 2.76 3.07 2.76 5.27 0 3.36-1.98 5.56-5.93 6.57 2.03.77 3.34 1.6 3.94 2.5.6.9 1 2.67 1.22 5.28.26 3.1.77 5.17 1.55 6.17h-8.65c-.55-1.3-.82-2.9-.82-4.82l-.04-1.64-.04-2.07c0-3.2-1.28-4.8-3.83-4.8h-1.37v13.32h-7.95zm7.95-15.6h1.6c3.02 0 4.54-1.6 4.54-4.8 0-3.18-1.52-4.77-4.54-4.77h-1.6v9.57zm35.95-12.15v2.8H96.6v9.26h8.5v2.8h-8.5v12.9h-7.94V113.9h17.92zm2.7 27.75V113.9h11.8c3.06 0 5.52.65 7.35 1.96 1.84 1.3 2.76 3.07 2.76 5.27 0 3.36-1.98 5.56-5.92 6.57 2.02.77 3.33 1.6 3.93 2.5.6.9 1 2.67 1.22 5.28.26 3.1.77 5.17 1.55 6.17h-8.64c-.55-1.3-.83-2.9-.83-4.82l-.04-1.64-.04-2.07c0-3.2-1.28-4.8-3.82-4.8h-1.37v13.32h-7.95zm7.95-15.6h1.6c3.03 0 4.54-1.6 4.54-4.8 0-3.18-1.5-4.77-4.53-4.77h-1.6v9.57zm26.03-12.15v27.75h-7.95V113.9h7.96zm15.5 12.77h11.33v14.98h-2.54l-.87-1.9c-2.22 1.56-4.56 2.35-7.03 2.35-4.07 0-7.23-1.22-9.48-3.68-2.26-2.46-3.38-5.92-3.38-10.4 0-4.34 1.2-7.86 3.58-10.54 2.38-2.7 5.5-4.04 9.35-4.04 5.07 0 8.16 2.62 9.26 7.87l-3.73 1.72v-.67l-.06-1.5c-.24-3.27-1.75-4.9-4.5-4.9-2 0-3.38.86-4.12 2.6-.74 1.72-1.1 4.95-1.1 9.68 0 4.42.3 7.42.9 9 .6 1.6 1.73 2.38 3.4 2.38 2 0 2.98-1.1 2.98-3.32v-6.82h-4v-2.8zm-115 36.96h10.18v13.94h-2.28l-.77-1.77c-2 1.46-4.1 2.2-6.33 2.2-3.66 0-6.5-1.14-8.53-3.43-2.02-2.3-3.03-5.52-3.03-9.68 0-4.06 1.08-7.34 3.23-9.83 2.14-2.5 4.94-3.76 8.4-3.76 4.57 0 7.35 2.45 8.34 7.33l-3.36 1.6v-.62l-.05-1.4c-.23-3.04-1.58-4.57-4.04-4.57-1.8 0-3.05.8-3.7 2.42-.68 1.62-1 4.63-1 9.03 0 4.1.26 6.9.8 8.38.54 1.48 1.56 2.22 3.08 2.22 1.78 0 2.67-1.04 2.67-3.1v-6.36h-3.6v-2.6zm13.7 13.94v-25.84H68.1c2.76 0 4.97.6 6.62 1.83 1.65 1.22 2.48 2.86 2.48 4.9 0 3.14-1.77 5.2-5.32 6.13 1.82.7 3 1.47 3.54 2.3.53.86.9 2.5 1.1 4.93.22 2.9.68 4.8 1.38 5.74H70.1c-.5-1.2-.73-2.7-.73-4.48l-.04-1.54-.04-1.92c0-2.98-1.16-4.46-3.45-4.46h-1.23v12.4h-7.15zm7.16-14.52h1.45c2.7 0 4.07-1.5 4.07-4.46 0-2.98-1.36-4.46-4.07-4.46h-1.45v8.9zm26.33-11.74c7.2 0 10.8 4.46 10.8 13.35 0 8.9-3.67 13.35-11 13.35-7.32 0-10.98-4.55-10.98-13.65 0-8.7 3.73-13.04 11.18-13.04zm-.2 2.06c-1.35 0-2.27.78-2.74 2.34-.47 1.55-.7 4.54-.7 8.95 0 4.42.23 7.4.7 8.96.48 1.57 1.4 2.35 2.75 2.35 1.36 0 2.28-.78 2.75-2.34.48-1.55.72-4.53.72-8.95 0-4.4-.24-7.38-.72-8.94-.47-1.56-1.4-2.34-2.75-2.34zm32.73-1.63v17.35c0 5.95-3.14 8.92-9.42 8.92-6.27 0-9.4-2.97-9.4-8.92v-17.35h7.15v17.58c0 2.28.32 3.83.95 4.66.62.84 1.77 1.25 3.45 1.25 3.25 0 4.88-2.03 4.88-6.12v-17.35h2.4zm3.9 25.84v-25.84H138c6.06 0 9.08 2.54 9.08 7.62 0 5.12-3.36 7.7-10.08 7.7h-2.48v10.52h-7.15zm7.14-12.94h1.6c2.62 0 3.92-1.8 3.92-5.4 0-3.4-1.3-5.1-3.9-5.1h-1.62v10.5z"/></svg>