<?xml version="1.0" encoding="UTF-8" standalone="no"?>
<!-- Generator: Adobe Illustrator 18.0.0, SVG Export Plug-In . SVG Version: 6.00 Build 0)  -->

<svg
   xmlns:dc="http://purl.org/dc/elements/1.1/"
   xmlns:cc="http://creativecommons.org/ns#"
   xmlns:rdf="http://www.w3.org/1999/02/22-rdf-syntax-ns#"
   xmlns:svg="http://www.w3.org/2000/svg"
   xmlns="http://www.w3.org/2000/svg"
   xmlns:sodipodi="http://sodipodi.sourceforge.net/DTD/sodipodi-0.dtd"
   xmlns:inkscape="http://www.inkscape.org/namespaces/inkscape"
   version="1.1"
   id="Capa_1"
   x="0px"
   y="0px"
   viewBox="0 0 65.000001 65.000001"
   xml:space="preserve"
   sodipodi:docname="pallet.svg"
   width="65"
   height="65"
   inkscape:version="0.92.3 (2405546, 2018-03-11)"><metadata
   id="metadata3863"><rdf:RDF><cc:Work
       rdf:about=""><dc:format>image/svg+xml</dc:format><dc:type
         rdf:resource="http://purl.org/dc/dcmitype/StillImage" /><dc:title></dc:title></cc:Work></rdf:RDF></metadata><defs
   id="defs3861" /><sodipodi:namedview
   pagecolor="#ffffff"
   bordercolor="#666666"
   borderopacity="1"
   objecttolerance="10"
   gridtolerance="10"
   guidetolerance="10"
   inkscape:pageopacity="0"
   inkscape:pageshadow="2"
   inkscape:window-width="1613"
   inkscape:window-height="995"
   id="namedview3859"
   showgrid="false"
   fit-margin-top="0"
   fit-margin-left="0"
   fit-margin-right="0"
   fit-margin-bottom="0"
   inkscape:zoom="4.6986524"
   inkscape:cx="89.158686"
   inkscape:cy="-1.4805378"
   inkscape:window-x="67"
   inkscape:window-y="27"
   inkscape:window-maximized="1"
   inkscape:current-layer="Capa_1" />
<circle
   id="path3867"
   cx="32.773266"
   cy="32.226734"
   r="27.155205"
   style="fill:#ffffff;stroke-width:0.07956064" /><g
   id="g3826"
   transform="matrix(0.07956065,0,0,0.07956065,13.31648,12.703101)">
	<path
   d="m 486.382,341.346 c 1.998,0 3.618,-1.62 3.618,-3.619 v -19.029 c 0,-1.999 -1.62,-3.619 -3.618,-3.619 H 3.619 c -1.998,0 -3.619,1.62 -3.619,3.619 v 19.029 c 0,1.999 1.621,3.619 3.619,3.619 h 31.898 v 34.22 H 3.619 c -1.998,0 -3.619,1.62 -3.619,3.619 v 19.029 c 0,1.999 1.621,3.619 3.619,3.619 h 482.763 c 1.998,0 3.618,-1.62 3.618,-3.619 v -19.029 c 0,-1.999 -1.62,-3.619 -3.618,-3.619 h -31.897 v -34.22 z m -392.445,0 h 120.976 v 34.22 H 93.937 Z m 302.127,34.219 H 273.331 v -34.22 h 122.733 z"
   id="path3816"
   inkscape:connector-curvature="0" />
	<g
   id="g3824">
		<path
   d="m 443.795,88.167 h -66.133 v 30.057 c 0,2.761 -2.238,5 -5,5 h -16.158 c -2.762,0 -5,-2.239 -5,-5 V 88.167 h -66.131 c -8.285,0 -15,6.716 -15,15 v 158.422 c 0,8.284 6.715,15 15,15 h 158.422 c 8.283,0 15,-6.716 15,-15 V 103.167 c 0,-8.284 -6.717,-15 -15,-15 z m -64.897,133.926 c -1.086,1.2 -2.582,1.81 -4.082,1.81 -1.315,0 -2.635,-0.47 -3.688,-1.421 -0.98,-0.888 -3.924,-3.55 -3.924,-3.55 v 24.599 c 0,3.038 -2.463,5.5 -5.498,5.5 -3.037,0 -5.5,-2.462 -5.5,-5.5 v -24.599 c 0,0 -2.941,2.662 -3.924,3.55 -1.051,0.952 -2.371,1.421 -3.688,1.421 -1.5,0 -2.994,-0.61 -4.08,-1.81 -2.037,-2.253 -1.863,-5.731 0.389,-7.769 0,0 8.43,-7.544 12.545,-11.348 1.17,-1.081 2.541,-2.021 4.258,-2.021 1.715,10e-4 3.088,0.94 4.258,2.021 4.113,3.804 12.543,11.348 12.543,11.348 2.255,2.038 2.428,5.516 0.391,7.769 z m 50.748,0 c -1.086,1.2 -2.58,1.81 -4.08,1.81 -1.316,0 -2.637,-0.469 -3.688,-1.421 -0.98,-0.887 -3.924,-3.55 -3.924,-3.55 v 24.599 c 0,3.038 -2.463,5.5 -5.5,5.5 -3.035,0 -5.498,-2.462 -5.498,-5.5 v -24.599 c 0,0 -2.943,2.662 -3.924,3.55 -1.053,0.952 -2.373,1.421 -3.688,1.421 -1.5,0 -2.996,-0.61 -4.082,-1.81 -2.037,-2.253 -1.863,-5.731 0.391,-7.769 0,0 8.43,-7.544 12.543,-11.348 1.17,-1.081 2.543,-2.021 4.258,-2.021 1.717,10e-4 3.088,0.94 4.258,2.021 4.115,3.804 12.545,11.348 12.545,11.348 2.253,2.038 2.427,5.516 0.389,7.769 z"
   id="path3818"
   inkscape:connector-curvature="0" />
		<g
   id="g3822">
			<path
   d="m 204.629,88.167 h -66.133 v 30.057 c 0,2.761 -2.238,5 -5,5 h -16.158 c -2.762,0 -5,-2.239 -5,-5 V 88.167 H 46.206 c -8.284,0 -15,6.716 -15,15 v 158.422 c 0,8.284 6.716,15 15,15 h 158.423 c 8.283,0 15,-6.716 15,-15 V 103.167 c 0,-8.284 -6.717,-15 -15,-15 z m -64.898,133.926 c -1.086,1.2 -2.581,1.81 -4.081,1.81 -1.316,0 -2.636,-0.47 -3.688,-1.421 -0.981,-0.888 -3.924,-3.55 -3.924,-3.55 v 24.599 c 0,3.038 -2.463,5.5 -5.499,5.5 -3.036,0 -5.499,-2.462 -5.499,-5.5 v -24.599 c 0,0 -2.942,2.662 -3.924,3.55 -1.052,0.952 -2.372,1.421 -3.688,1.421 -1.5,0 -2.995,-0.61 -4.081,-1.81 -2.037,-2.253 -1.863,-5.731 0.39,-7.769 0,0 8.43,-7.544 12.544,-11.348 1.17,-1.081 2.542,-2.021 4.258,-2.021 1.716,10e-4 3.088,0.94 4.258,2.021 4.114,3.804 12.544,11.348 12.544,11.348 2.254,2.038 2.427,5.516 0.39,7.769 z m 50.748,0 c -1.086,1.2 -2.58,1.81 -4.08,1.81 -1.315,0 -2.636,-0.469 -3.688,-1.421 -0.98,-0.887 -3.924,-3.55 -3.924,-3.55 v 24.599 c 0,3.038 -2.463,5.5 -5.499,5.5 -3.036,0 -5.499,-2.462 -5.499,-5.5 v -24.599 c 0,0 -2.942,2.662 -3.924,3.55 -1.052,0.952 -2.372,1.421 -3.688,1.421 -1.5,0 -2.995,-0.61 -4.081,-1.81 -2.037,-2.253 -1.863,-5.731 0.39,-7.769 0,0 8.43,-7.544 12.544,-11.348 1.17,-1.081 2.542,-2.021 4.258,-2.021 1.716,10e-4 3.088,0.94 4.258,2.021 4.114,3.804 12.544,11.348 12.544,11.348 2.254,2.038 2.428,5.516 0.389,7.769 z"
   id="path3820"
   inkscape:connector-curvature="0" />
		</g>
	</g>
</g>
<g
   id="g3828"
   transform="translate(96.761658,-521.7076)">
</g>
<g
   id="g3830"
   transform="translate(96.761658,-521.7076)">
</g>
<g
   id="g3832"
   transform="translate(96.761658,-521.7076)">
</g>
<g
   id="g3834"
   transform="translate(96.761658,-521.7076)">
</g>
<g
   id="g3836"
   transform="translate(96.761658,-521.7076)">
</g>
<g
   id="g3838"
   transform="translate(96.761658,-521.7076)">
</g>
<g
   id="g3840"
   transform="translate(96.761658,-521.7076)">
</g>
<g
   id="g3842"
   transform="translate(96.761658,-521.7076)">
</g>
<g
   id="g3844"
   transform="translate(96.761658,-521.7076)">
</g>
<g
   id="g3846"
   transform="translate(96.761658,-521.7076)">
</g>
<g
   id="g3848"
   transform="translate(96.761658,-521.7076)">
</g>
<g
   id="g3850"
   transform="translate(96.761658,-521.7076)">
</g>
<g
   id="g3852"
   transform="translate(96.761658,-521.7076)">
</g>
<g
   id="g3854"
   transform="translate(96.761658,-521.7076)">
</g>
<g
   id="g3856"
   transform="translate(96.761658,-521.7076)">
</g>
</svg>